<svg width="99" height="20" viewBox="0 0 99 20" fill="none" xmlns="http://www.w3.org/2000/svg">
    <path d="M0 15.769h5.881V12.88H4.498V4.89h1.383V2H0v2.889h1.383v7.991H0v2.889zM7.907 15.769h3.189v-4.39c0-.482.055-.925.184-1.31.277-.848.885-1.425 1.88-1.425.701 0 1.052.385 1.052 1.31v4.41c0 .981.405 1.405 1.346 1.405h2.95v-2.792h-.701c-.258 0-.406-.154-.406-.424V9.337c0-2.792-1.493-3.717-3.41-3.717-1.678 0-2.563.944-3.006 1.714h-.037s.019-.135.019-.23v-.136c0-.674-.46-1.117-1.327-1.117H6.8v2.793h.701c.258 0 .406.154.406.423v6.702zM20.275 12.11c0 3.332 2.932 3.755 4.444 3.755.516 0 .866-.058.866-.058V12.92s-.166.02-.424.02c-.608 0-1.696-.155-1.696-1.272V8.451h1.991v-2.6h-1.991V3.175h-3.097V5.85h-1.31v2.6h1.217v3.659zM26.5 10.8c0 2.639 1.825 5.2 5.217 5.2 2.526 0 4.056-1.58 4.056-1.58L34.5 12.188s-1.162 1.04-2.526 1.04c-1.014 0-1.973-.559-2.212-1.81h5.991s.074-.674.074-1.002c0-2.753-1.585-4.795-4.388-4.795-3.06 0-4.94 2.273-4.94 5.18zm3.355-1.405c.203-.732.664-1.271 1.585-1.271.664 0 1.125.655 1.125 1.27h-2.71zM37.901 15.769h3.19v-3.755c0-.54.055-.982.166-1.348.46-1.483 1.696-1.733 2.452-1.733.387 0 .645.057.645.057V5.717s-.184-.039-.369-.039c-1.42 0-2.617 1.117-3.023 2.465h-.037s.037-.193.037-.5v-.52c0-.906-.48-1.272-1.346-1.272h-2.82v2.793h.7c.258 0 .405.154.405.423v6.702zM44.775 12.803c0 1.964 1.456 3.197 3.226 3.197 1.992 0 2.655-1.444 2.655-1.444h.037v.173c0 .443.332 1.04 1.254 1.04h2.765v-2.792h-.7c-.258 0-.406-.154-.406-.424V9.664c0-2.272-1.088-4.044-4.406-4.044-1.088 0-3.78.116-3.78 2.33v1.098h2.95v-.443c0-.385.424-.481.83-.481.792 0 1.216.346 1.216 1.29v.116h-.129c-1.474 0-5.512.327-5.512 3.273zm3.208-.173c0-.79 1.161-1.078 2.175-1.078h.295v.154c0 .808-.737 1.752-1.567 1.752-.627 0-.903-.366-.903-.828zM55.486 10.8c0 2.735 1.9 5.2 5.291 5.2 2.71 0 4.204-1.926 4.204-1.926l-1.272-2.234s-1.254 1.29-2.618 1.29c-1.18 0-2.397-.673-2.397-2.368 0-1.329.811-2.388 2.157-2.388.387 0 .738.116.738.424v.52h2.765V7.95c0-1.79-2.175-2.33-3.503-2.33-3.595 0-5.365 2.562-5.365 5.18zM66.546 12.11c0 3.332 2.931 3.755 4.443 3.755.516 0 .867-.058.867-.058V12.92s-.166.02-.424.02c-.609 0-1.697-.155-1.697-1.272V8.451h1.992v-2.6h-1.992V3.175h-3.097V5.85H65.33v2.6h1.217v3.659zM74.169 4.696h2.673V2h-2.673v2.696zm-.24 9.667c0 .982.406 1.406 1.346 1.406h2.95v-2.792h-.7c-.259 0-.407-.154-.407-.424V7.257c0-.982-.405-1.406-1.345-1.406h-2.95v2.793h.7c.259 0 .406.154.406.423v5.296zM81.82 15.769h3.89l2.416-6.817c.073-.212.22-.308.442-.308h.24V5.85h-1.862c-.664 0-1.143.29-1.31.81l-1.419 4.467c-.203.635-.35 1.598-.35 1.598h-.037s-.148-.963-.35-1.598L82.042 6.66c-.166-.52-.609-.809-1.291-.809h-2.028v2.793h.24c.221 0 .332.096.405.308l2.452 6.817zM89.28 10.8c0 2.639 1.825 5.2 5.217 5.2 2.526 0 4.056-1.58 4.056-1.58l-1.272-2.233s-1.161 1.04-2.526 1.04c-1.013 0-1.972-.559-2.212-1.81h5.992s.074-.674.074-1.002c0-2.753-1.586-4.795-4.388-4.795-3.06 0-4.941 2.273-4.941 5.18zm3.355-1.405c.203-.732.664-1.271 1.586-1.271.664 0 1.124.655 1.124 1.27h-2.71z" fill="#fff"/>
</svg>
