<svg width="47" height="20" viewBox="0 0 47 20" fill="none" xmlns="http://www.w3.org/2000/svg">
    <path d="M38.195 2.652c.037.013.076.037.113.04.292.006.575.064.86.125.361.078.705.199 1.034.359.335.162.644.37.92.62.348.316.636.675.834 1.097.098.21.172.433.248.651.133.39.183.79.174 1.198v.093c-.033.005-.061.009-.087.009-.322 0-.646-.002-.969.002-.093.002-.117-.039-.12-.123-.043-.883-.391-1.627-1.064-2.206a2.864 2.864 0 0 0-.942-.528c-.259-.089-.522-.169-.799-.18-.309-.012-.622-.045-.929-.023-.268.02-.531.095-.794.155-.427.1-.799.31-1.112.613a2.1 2.1 0 0 0-.501.77c-.113.292-.152.592-.187.901-.024.212-.002.416.028.617.065.456.279.84.655 1.127.244.186.518.318.805.415.227.078.466.123.697.186.183.05.366.108.548.16.174.048.35.09.525.138.191.052.38.109.57.16.187.05.379.096.566.145.172.046.344.087.511.143.231.076.46.156.684.245.629.244 1.203.58 1.645 1.098.246.288.418.619.538.98.167.513.209 1.04.156 1.566-.098.997-.49 1.858-1.295 2.5-.333.264-.698.47-1.103.597-.27.085-.544.154-.818.219-.669.158-1.347.14-2.026.114a5.221 5.221 0 0 1-.915-.127c-.596-.13-1.164-.335-1.673-.681a3.48 3.48 0 0 1-1.215-1.391 4.156 4.156 0 0 1-.304-.844 4.068 4.068 0 0 1-.129-.871c-.004-.204-.028-.407-.03-.61-.002-.137.028-.158.16-.158.295 0 .588.002.882-.002.098-.003.127.03.133.13.02.313.03.63.09.938.13.666.415 1.257.948 1.704a2.7 2.7 0 0 0 .86.502c.209.074.418.152.633.204.205.05.416.08.627.092.35.024.7.055 1.049.037.279-.015.555-.09.827-.155.379-.09.72-.262 1.04-.48.381-.258.677-.589.875-1 .213-.441.266-.915.211-1.393a1.854 1.854 0 0 0-.38-.921c-.316-.418-.743-.684-1.217-.876-.303-.123-.62-.214-.932-.31a34.727 34.727 0 0 0-1.03-.291c-.293-.08-.589-.15-.885-.227-.313-.085-.631-.16-.94-.262-.54-.173-1.064-.39-1.51-.744a2.556 2.556 0 0 1-.754-.963c-.11-.25-.2-.51-.226-.787-.022-.242-.072-.482-.063-.722.009-.275.063-.55.109-.822.074-.444.25-.85.49-1.229.25-.398.572-.729.962-.995.245-.168.507-.307.785-.406.229-.083.468-.141.708-.186.245-.046.498-.063.746-.093.02-.003.035-.024.054-.037.214-.007.431-.007.649-.007zM22.062 5.016V16.38h-1.173V2.955h.322c.31 0 .616-.002.925.002.04 0 .096.03.115.063.442.688.882 1.38 1.321 2.07.51.802 1.019 1.607 1.526 2.412.34.536.672 1.077 1.014 1.61.338.53.684 1.054 1.019 1.584.476.75.946 1.505 1.419 2.256l.82 1.291c.015.022.037.04.07.074V2.962h1.177v13.416c-.022.002-.046.006-.07.006h-1.164c-.048 0-.082-.002-.117-.058-.499-.794-1.006-1.58-1.508-2.373-.34-.536-.673-1.074-1.015-1.61-.365-.574-.737-1.143-1.1-1.716-.45-.707-.891-1.417-1.34-2.124-.363-.573-.735-1.142-1.1-1.715-.357-.558-.708-1.12-1.063-1.68-.017-.027-.041-.05-.078-.092zM17.75 9.993h-6.748v5.282h7.188c.078.004.122.032.12.123-.005.323-.002.647-.002.98-.046.002-.085.007-.122.007-2.756 0-5.51 0-8.266.002-.094 0-.137-.028-.126-.121.002-.018 0-.037 0-.054V3.126c0-.173 0-.173.17-.173h8.254v.19c0 .262-.004.526.003.788.002.103-.044.134-.133.134H11v4.814h6.568c.178 0 .178 0 .178.178.004.309.004.614.004.936zM7.963 16.382H0V2.964h1.167v12.31h6.618c.178 0 .178 0 .178.178v.93z" fill="#fff"/>
</svg>
