<svg width="85" height="20" viewBox="0 0 85 20" fill="none" xmlns="http://www.w3.org/2000/svg">
    <path d="M37.764 6.848c-.349-.419-1.19-1.163-2.822-1.163-2.58 0-4.312 2.012-4.312 5.007 0 2.995 1.794 5.084 4.366 5.084 1.119 0 1.909-.332 2.503-1.039v.62c0 1.97-1.573 2.265-2.52 2.265a5.844 5.844 0 0 1-2.551-.637l-.128-.07-.817 2.169.101.056a7.4 7.4 0 0 0 3.412.86c2.472 0 5.112-1.257 5.112-4.759V8.504c0-.206.15-.25.279-.25h.85V5.915h-2.314c-.754 0-1.115.453-1.159.933zm-.176 3.865c0 2.117-1.167 2.561-2.092 2.561-1.338 0-2.17-1.015-2.17-2.653 0-1.514.757-2.418 2.02-2.418 1.486.002 2.24.8 2.24 2.51h.002zM12.877 5.685c-3.02 0-5.297 2.26-5.297 5.257 0 2.998 2.276 5.253 5.296 5.253 3.02 0 5.316-2.26 5.316-5.256 0-2.996-2.286-5.254-5.316-5.254zm2.617 5.257c0 1.56-1.126 2.736-2.617 2.736-1.492 0-2.604-1.176-2.604-2.736 0-1.56 1.118-2.737 2.6-2.737 1.48 0 2.62 1.178 2.62 2.737zM47.897 2c-1.196 0-3.98.366-3.98 3.76v.155H42.75v2.34h1.167v7.714h2.606V8.254h2.021V5.916h-2.02v-.098c0-.97.566-1.46 1.686-1.46.154 0 .307.012.459.037l.15.028V2.08l-.105-.02a4.916 4.916 0 0 0-.818-.06zM54.444 5.685c-3.02 0-5.296 2.26-5.296 5.257 0 2.998 2.276 5.253 5.296 5.253 3.02 0 5.315-2.26 5.315-5.256 0-2.996-2.286-5.254-5.315-5.254zm2.617 5.257c0 1.56-1.125 2.736-2.617 2.736s-2.598-1.176-2.598-2.736c0-1.56 1.117-2.737 2.598-2.737 1.48 0 2.617 1.178 2.617 2.737zM64.347 7.38v-.238c0-.79-.486-1.228-1.369-1.228h-2.314v2.339h.87c.198 0 .279.084.279.289v7.426h2.608v-4.01a5.973 5.973 0 0 1 .199-1.553c.43-1.478 1.376-2.152 2.866-2.152h.287V5.914h-.574c-1.792 0-2.52.77-2.852 1.466zM25.688 5.685c-1.781 0-2.758 1.024-3.206 1.69v-.232c0-.792-.486-1.228-1.369-1.228H18.8v2.34h.87c.198 0 .279.083.279.288v7.426h2.608v-4.625c-.005-.43.056-.857.181-1.266.14-.549.454-1.032.892-1.372.438-.34.974-.516 1.522-.5.96 0 1.347.51 1.347 1.834v5.929h2.61V9.546c.006-2.567-1.148-3.86-3.42-3.86zM81.636 5.685a3.68 3.68 0 0 0-1.844.498 3.846 3.846 0 0 0-1.376 1.366c-.465-1.237-1.406-1.864-2.8-1.864-1.307 0-2.377.821-2.945 1.7v-.242c0-.792-.487-1.228-1.37-1.228h-2.315v2.34h.87c.199 0 .28.083.28.288v7.426h2.609v-4.432c0-.404.048-.805.144-1.197.248-1.045.943-2.135 2.156-2.135.961 0 1.15.641 1.15 1.796v5.968h2.609v-4.432c-.01-.412.038-.822.145-1.219.225-1.065.972-2.113 2.134-2.113.97 0 1.168.699 1.168 1.796v5.968h2.609V9.546c-.003-2.567-1.086-3.86-3.224-3.86zM3.822 13.34V3.515c0-.977-.44-1.438-1.388-1.438H0v2.339h.934c.198 0 .279.084.279.289v11.264h6.064v-2.34H4.101a.238.238 0 0 1-.21-.072.255.255 0 0 1-.07-.217z" fill="#fff"/>
</svg>
