<svg width="116" height="17" viewBox="0 0 116 17" fill="none" xmlns="http://www.w3.org/2000/svg">
<path fill-rule="evenodd" clip-rule="evenodd" d="M24.4597 15.4346C28.9476 15.4346 32.5858 11.9794 32.5858 7.71728C32.5858 3.45514 28.9476 0 24.4597 0C19.9717 0 16.3335 3.45514 16.3335 7.71728C16.3335 11.9794 19.9717 15.4346 24.4597 15.4346ZM24.4597 10.9328C26.0436 10.9328 27.3277 9.49317 27.3277 7.71728C27.3277 5.94139 26.0436 4.50175 24.4597 4.50175C22.8757 4.50175 21.5916 5.94139 21.5916 7.71728C21.5916 9.49317 22.8757 10.9328 24.4597 10.9328Z" fill="white"/>
<path d="M5.97667 1.22298e-05C2.8967 1.22298e-05 0.399902 2.51939 0.399902 5.6272V16.2863C0.399902 16.5699 0.737189 16.7146 0.939613 16.5179L6.35691 11.2544H8.36671C11.4467 11.2544 13.9435 8.735 13.9435 5.6272C13.9435 2.51939 11.4467 1.22298e-05 8.36671 1.22298e-05H5.97667Z" fill="white"/>
<path fill-rule="evenodd" clip-rule="evenodd" d="M34.9758 4.50176C34.9758 2.01551 36.9733 1.22298e-05 39.4372 1.22298e-05H42.4646C46.6006 1.22298e-05 49.9534 3.38317 49.9534 7.55652V7.87807C49.9534 12.0514 46.6006 15.4346 42.4646 15.4346H35.6132C35.2612 15.4346 34.9758 15.1466 34.9758 14.7915V4.50176ZM40.0746 4.62387C40.0746 4.55643 40.1288 4.50176 40.1956 4.50176H41.6679C43.4279 4.50176 44.8547 5.9414 44.8547 7.71729C44.8547 9.49318 43.4279 10.9328 41.6679 10.9328H40.1956C40.1288 10.9328 40.0746 10.8782 40.0746 10.8107V4.62387Z" fill="white"/>
<path d="M66.0697 11.0204C66.5315 11.2907 66.6885 11.8947 66.3576 12.3174C64.8766 14.209 62.5051 15.4346 59.8323 15.4346C55.3443 15.4346 51.7061 11.9794 51.7061 7.71728C51.7061 3.45513 55.3443 0 59.8323 0C62.3889 0 64.6697 1.12124 66.1593 2.87415C66.5158 3.2936 66.3657 3.91935 65.892 4.19658L62.9893 5.89536C62.6648 6.0853 62.2525 5.94703 62.0257 5.64547C61.4996 4.94604 60.7122 4.50175 59.8323 4.50175C58.2483 4.50175 56.9642 5.9414 56.9642 7.71728C56.9642 9.49317 58.2483 10.9328 59.8323 10.9328C60.7851 10.9328 61.6294 10.4119 62.1509 9.61022C62.3685 9.27579 62.8055 9.11002 63.1484 9.31074L66.0697 11.0204Z" fill="white"/>
<path fill-rule="evenodd" clip-rule="evenodd" d="M67.8992 14.0867C67.626 14.7237 68.0888 15.4346 68.7766 15.4346H72.5668C72.8158 15.4346 73.042 15.2883 73.1459 15.0599L73.927 13.3445H79.1981L79.9792 15.0599C80.0831 15.2883 80.3093 15.4346 80.5583 15.4346H84.3485C85.0363 15.4346 85.4991 14.7236 85.2259 14.0867L79.3496 0.387649C79.2486 0.152327 79.0188 0 78.7647 0H74.3605C74.1063 0 73.8765 0.152327 73.7756 0.38765L67.8992 14.0867ZM78.064 9.58476C78.1077 9.69067 78.0306 9.80738 77.9169 9.80738H75.2082C75.0945 9.80738 75.0174 9.69067 75.0611 9.58476L76.4155 6.30492C76.4699 6.173 76.6552 6.173 76.7096 6.30492L78.064 9.58476Z" fill="white"/>
<path d="M115.6 0.643107C115.6 0.287929 115.315 0 114.963 0H102.056C101.704 0 101.419 0.287929 101.419 0.643107V4.18019C101.419 4.53537 101.704 4.8233 102.056 4.8233H106.199V14.7915C106.199 15.1466 106.484 15.4346 106.836 15.4346H110.342C110.694 15.4346 110.979 15.1466 110.979 14.7915V4.8233H114.963C115.315 4.8233 115.6 4.53537 115.6 4.18019V0.643107Z" fill="white"/>
<path d="M99.287 8.102C99.3982 8.23567 99.5003 8.37677 99.5924 8.52434C99.9723 9.13506 100.354 10.1607 100.01 11.5772C99.6133 13.2105 98.5294 14.4461 96.9561 15.0561C94.3707 16.0584 89.4217 14.9412 86.9777 13.2127C86.563 12.9194 86.5432 12.3358 86.8776 11.952L88.4414 10.1567C88.8008 9.74411 89.436 9.71387 89.903 9.99629C91.2113 10.7875 93.224 11.4103 94.3285 11.4151C95.1234 11.3606 95.876 10.5561 93.7969 9.99246L92.9603 9.80708C92.7689 9.77372 92.5794 9.7298 92.3927 9.67551C90.7077 9.26961 88.9742 8.70898 87.8427 7.40083L87.8486 7.39485C87.7374 7.26144 87.6354 7.12058 87.5432 6.97325C87.1633 6.36253 86.7819 5.34068 87.1253 3.92041C87.5224 2.28709 88.6062 1.05145 90.1795 0.441479C92.7337 -0.548652 96.3694 0.252524 98.8364 1.59998C99.3099 1.8586 99.4189 2.4764 99.1059 2.91841L97.8188 4.73574C97.513 5.16755 96.9195 5.2648 96.4493 5.027C95.2826 4.43698 93.8724 4.11567 92.7741 4.11028C91.9793 4.16485 91.2597 4.94077 93.3387 5.50514L94.1753 5.69052C94.3667 5.72402 94.5562 5.76768 94.7429 5.82134C96.1702 6.1637 97.628 6.62342 98.7283 7.55183C98.9294 7.71436 99.1143 7.8961 99.2803 8.09452L99.287 8.102Z" fill="white"/>
<path d="M10.1191 5.62723L5.49839 8.03888L5.49839 3.21558L10.1191 5.62723Z" fill="#11D411"/>
</svg>
