<svg width="52" height="20" viewBox="0 0 52 20" fill="none" xmlns="http://www.w3.org/2000/svg">
    <path d="M14.784.001c0 1.59 0 3.177.003 4.767 0 .008.003.016.011.044h3.715c.003.066.009.115.009.164 0 .706-.003 1.412.003 2.118.002.142-.054.167-.182.167-1.118-.003-2.234-.003-3.352-.003h-.19c-.006.033-.014.058-.014.085 0 1.27-.02 2.542.014 3.812.017.662.278 1.267.694 1.803.24.31.518.583.84.81.315.222.655.394 1.031.509.374.115.75.167 1.15.164.003.055.009.099.009.142 0 .715-.003 1.432.002 2.146 0 .126-.048.167-.164.153-.38-.047-.759-.096-1.138-.142-.42-.052-.816-.19-1.198-.348-.425-.178-.832-.391-1.186-.684-.315-.257-.637-.509-.92-.793a5.558 5.558 0 0 1-1.153-1.68 5.755 5.755 0 0 1-.47-2.387c0-1.144-.003-2.285.003-3.428 0-.132-.043-.162-.167-.16-.312.006-.623 0-.935.004-.093 0-.15-.02-.15-.129.003-.739.003-1.475.003-2.214 0-.027.006-.054.011-.095h1.232V.253c0-.082.003-.164.006-.246C13.125 0 13.954 0 14.784 0zM19.762 10.845c-.1-3.267 2.834-6.12 6.343-6.028 1.608.041 3.012.583 4.176 1.661 1.305 1.212 1.962 2.693 1.937 4.447-.023 1.54-.57 2.876-1.662 4.009-1.258 1.302-2.81 1.948-4.641 1.937-1.648-.011-3.092-.575-4.27-1.697-1.249-1.184-1.92-2.613-1.883-4.329zm6.212-3.587c-2.05-.066-3.678 1.691-3.726 3.467-.057 2.102 1.77 3.697 3.655 3.722 2.152.03 3.815-1.678 3.82-3.593.003-1.946-1.676-3.65-3.749-3.596zM9.792 6.038c-.38.684-.756 1.365-1.13 2.041-.424-.21-.832-.437-1.26-.624-.328-.142-.68-.238-1.022-.353-.532-.18-1.084-.205-1.636-.153-.4.036-.78.153-.994.526-.221.385-.19.894.243 1.272.255.222.555.364.867.49.453.183.909.37 1.37.533.32.115.651.19.974.293.603.194 1.204.391 1.733.753.396.27.668.62.821 1.067.1.287.173.577.167.881-.003.301.029.607-.017.903a3.186 3.186 0 0 1-.549 1.387c-.396.564-.92.977-1.549 1.267-.294.137-.62.21-.937.298a6.42 6.42 0 0 1-1.645.217c-.42 0-.827-.055-1.232-.159-.43-.112-.866-.205-1.288-.348-.445-.147-.872-.342-1.306-.514a2.399 2.399 0 0 1-.15-.063c-.204-.096-.198-.093-.099-.274.264-.476.524-.952.785-1.43a8.37 8.37 0 0 1 .218-.381c.017-.027.076-.055.101-.044.354.134.7.282 1.054.408.257.093.524.161.79.235.26.074.524.143.787.206.142.032.286.046.428.065.147.02.297.03.444.052.552.08 1.257-.276 1.495-.766.07-.145.147-.304.162-.46.03-.37-.202-.626-.482-.832-.416-.306-.889-.511-1.382-.678a42.005 42.005 0 0 1-1.614-.586c-.49-.191-.97-.397-1.45-.61-.62-.28-1.021-.75-1.242-1.37a4.441 4.441 0 0 1-.235-1.033 2.638 2.638 0 0 1 .116-1.031 3.357 3.357 0 0 1 1.146-1.721 3.118 3.118 0 0 1 1.06-.534c.393-.12.787-.208 1.2-.219.394-.01.79-.046 1.18-.027.377.019.754.074 1.122.153.657.145 1.3.337 1.906.635.305.15.614.298.92.449.048.022.085.049.13.079zM40.44 4.814h2.303c.368 0 .362.003.512.323.278.6.56 1.193.838 1.793.312.67.615 1.34.926 2.01.212.458.436.912.651 1.37.071.15.14.306.221.486.051-.076.1-.134.128-.197.252-.547.498-1.094.75-1.639.235-.509.479-1.015.716-1.527.218-.47.428-.944.643-1.415.17-.369.34-.741.518-1.108.02-.04.088-.09.133-.09.844-.006 1.688-.003 2.535-.003.008 0 .017.006.056.02-.045.114-.085.232-.136.347-.164.358-.33.714-.495 1.073-.24.525-.484 1.053-.722 1.581-.235.517-.462 1.037-.697 1.552-.255.558-.518 1.113-.773 1.672-.198.435-.388.873-.586 1.308-.277.607-.56 1.212-.835 1.82-.292.645-.575 1.296-.87 1.942-.252.555-.515 1.105-.77 1.658a59.15 59.15 0 0 0-.58 1.3c-.06.14-.139.197-.297.197-.785-.005-1.566-.003-2.35-.003-.21 0-.219-.01-.136-.191.317-.69.64-1.382.957-2.072.303-.654.603-1.31.906-1.964.17-.37.34-.742.504-1.114a.256.256 0 0 0 .002-.183c-.268-.591-.546-1.18-.818-1.768-.255-.556-.501-1.114-.756-1.67-.218-.478-.444-.952-.662-1.43-.255-.561-.502-1.125-.756-1.686-.156-.345-.323-.69-.479-1.034-.195-.433-.39-.865-.583-1.297-.009-.017 0-.033.003-.06zM39.69 4.809v.161c0 .712-.003 1.42.003 2.132 0 .12-.04.159-.161.159-.717 0-1.365.213-1.951.61a3.752 3.752 0 0 0-1.385 1.658c-.099.233-.153.49-.184.739a7.9 7.9 0 0 0-.054 1.002 1173.1 1173.1 0 0 0 0 5.437c0 .134-.042.172-.175.172-.717-.005-1.433-.005-2.15 0-.138 0-.175-.047-.175-.175.003-3.908.003-7.815.003-11.723v-.156h2.486V6c.57-.383 1.135-.69 1.761-.884.64-.2 1.294-.273 1.982-.306z" fill="#fff"/>
</svg>
